<svg width="26" height="27" viewBox="0 0 26 27" fill="none" xmlns="http://www.w3.org/2000/svg">
<path fill-rule="evenodd" clip-rule="evenodd" d="M0.804164 14.774C0.742902 14.5979 0.83599 14.4053 1.01205 14.3429C9.30511 11.4561 16.5658 7.20983 22.611 1.72649L20.892 1.81994C20.7068 1.82951 20.5464 1.6873 20.5362 1.50021C20.5261 1.31458 20.6689 1.15453 20.8552 1.14496L23.5204 1H23.5561C23.6442 1.0046 23.7281 1.04397 23.7879 1.10964C23.8563 1.18433 23.8876 1.2857 23.8727 1.38633L23.488 4.02773C23.4635 4.19588 23.3191 4.31638 23.1543 4.31638C23.1381 4.31638 23.1219 4.31509 23.1052 4.31233C22.9205 4.2851 22.7928 4.11457 22.8195 3.93023L23.0678 2.22396C16.9548 7.76993 9.61544 12.0636 1.23384 14.9817C1.19704 14.9951 1.1597 15.0006 1.12254 15.0006C0.98309 15.0006 0.852654 14.9138 0.803905 14.7742L0.804164 14.774ZM25.1093 25.3238V7.85891H22.5455V25.3238H25.1093ZM25.4472 7.18262H22.2079C22.0214 7.18262 21.87 7.33421 21.87 7.52002V25.6612C21.87 25.8483 22.021 25.9986 22.2079 25.9986H25.4472C25.6339 25.9986 25.7852 25.8482 25.7852 25.6612V7.52002C25.7852 7.3344 25.6338 7.18262 25.4472 7.18262ZM18.081 25.3238V11.5305H15.5172V25.3238H18.081ZM18.4189 10.8542H15.1795C14.9929 10.8542 14.8415 11.0062 14.8415 11.1918V25.6614C14.8415 25.8485 14.9929 25.9988 15.1795 25.9988H18.4187C18.6053 25.9988 18.7567 25.8483 18.7567 25.6614L18.7565 11.1918C18.7569 11.0062 18.6055 10.8542 18.4189 10.8542H18.4189ZM11.0527 25.3238V14.4985H8.48892V25.3234H11.0527V25.3238ZM11.3907 13.824H8.15138C7.96484 13.824 7.81343 13.9745 7.81343 14.1614V25.6612C7.81343 25.8483 7.96483 25.9986 8.15138 25.9986H11.3907C11.5772 25.9986 11.7286 25.8482 11.7286 25.6612V14.1614C11.7286 13.9743 11.5772 13.824 11.3907 13.824ZM4.02444 25.3238H1.46103V18.8727H4.02482V25.3238H4.02444ZM4.36239 18.1973H1.12311C0.93638 18.1973 0.785156 18.3478 0.785156 18.5349V25.6614C0.785156 25.8485 0.936192 25.9988 1.12311 25.9988H4.36239C4.54893 25.9988 4.70034 25.8483 4.70034 25.6614V18.5349C4.70034 18.3478 4.54893 18.1975 4.36239 18.1975V18.1973Z" fill="#DBA362" fill-opacity="0.8"/>
<path d="M4.46191 18.0977V18.1094C4.65554 18.1543 4.80078 18.3269 4.80078 18.5352V25.6611C4.80078 25.9036 4.60379 26.0986 4.3623 26.0986H1.12305C0.88118 26.0986 0.685547 25.9037 0.685547 25.6611V18.5352C0.685547 18.2926 0.881335 18.0977 1.12305 18.0977H4.46191ZM11.3906 13.7236C11.632 13.7236 11.828 13.9186 11.8281 14.1611V25.6611C11.8281 25.9036 11.6321 26.0986 11.3906 26.0986H8.15137C7.90992 26.0986 7.71387 25.9038 7.71387 25.6611V14.1611C7.71403 13.9189 7.90999 13.7236 8.15137 13.7236H11.3906ZM18.4189 10.7539C18.6605 10.7539 18.8566 10.9507 18.8564 11.1914V25.6611C18.8564 25.9035 18.6603 26.0985 18.4189 26.0986H15.1797C14.9382 26.0986 14.7412 25.9038 14.7412 25.6611V11.1914C14.7414 10.9508 14.938 10.7539 15.1797 10.7539H18.4189ZM25.4473 7.08301C25.6888 7.08304 25.8845 7.27889 25.8848 7.51953V25.6611C25.8848 25.9035 25.6889 26.0986 25.4473 26.0986H22.208C21.9661 26.0986 21.7695 25.9037 21.7695 25.6611V7.51953C21.7698 7.27865 21.9665 7.08301 22.208 7.08301H25.4473ZM22.6455 25.2236H25.0088V7.95898H22.6455V25.2236ZM15.6172 25.2236H17.9814V11.6309H15.6172V25.2236ZM8.58887 25.2236H10.9531V14.5986H8.58887V25.2236ZM1.56055 25.2236H3.9248V18.9727H1.56055V25.2236ZM23.5205 0.900391H23.5615C23.6757 0.906414 23.7847 0.956777 23.8623 1.04199H23.8613C23.9501 1.13883 23.991 1.27086 23.9717 1.40137L23.5869 4.04199C23.5552 4.26021 23.3679 4.41601 23.1543 4.41602C23.1327 4.41602 23.111 4.41478 23.0889 4.41113V4.41016C22.851 4.37408 22.6862 4.15461 22.7207 3.91602L22.9287 2.48145C16.8462 7.94761 9.56658 12.1865 1.2666 15.0762L1.26562 15.0752C1.21708 15.0926 1.16861 15.1006 1.12207 15.1006C0.941641 15.1004 0.773116 14.9875 0.709961 14.8066L0.686523 14.7402L0.693359 14.7344C0.658812 14.5279 0.774881 14.3213 0.978516 14.249L0.979492 14.248C9.16457 11.3988 16.3398 7.22262 22.332 1.84082L20.8975 1.91992C20.6577 1.9323 20.4498 1.74837 20.4365 1.50586C20.4234 1.26548 20.6079 1.05761 20.8496 1.04492L23.5146 0.900391L23.5205 0.899414V0.900391Z" stroke="#DBA362" stroke-opacity="0.8" stroke-width="0.2"/>
</svg>
